<?xml version="1.0" standalone="no"?>
<!DOCTYPE svg PUBLIC "-//W3C//DTD SVG 20010904//EN"
 "http://www.w3.org/TR/2001/REC-SVG-20010904/DTD/svg10.dtd">
<svg version="1.0" xmlns="http://www.w3.org/2000/svg"
 width="989.000000pt" height="989.000000pt" viewBox="0 0 989.000000 989.000000"
 preserveAspectRatio="xMidYMid meet">
<metadata>
Created by potrace 1.14, written by Peter Selinger 2001-2017
</metadata>
<g transform="translate(0.000000,989.000000) scale(0.100000,-0.100000)"
fill="#000000" stroke="none">
<path d="M4716 9833 c-1 -1 -32 -5 -68 -8 -36 -3 -83 -8 -104 -11 -22 -3 -46
-5 -54 -6 -8 0 -35 -4 -60 -8 -25 -5 -67 -11 -95 -15 -27 -3 -95 -17 -150 -31
-55 -13 -111 -27 -125 -30 -39 -9 -44 -11 -60 -17 -42 -17 -157 -59 -170 -62
-8 -2 -16 -4 -17 -5 -2 -2 -6 -3 -10 -4 -5 -2 -21 -8 -38 -15 -16 -8 -39 -17
-50 -22 -54 -21 -321 -152 -325 -159 -3 -4 -35 -24 -72 -45 -38 -20 -70 -41
-74 -46 -3 -5 -30 -25 -60 -44 -74 -47 -184 -135 -184 -146 0 -5 -7 -9 -15 -9
-8 0 -15 -4 -15 -8 0 -4 -13 -15 -28 -24 -25 -15 -209 -192 -254 -244 -9 -10
-34 -36 -57 -57 -23 -21 -41 -43 -41 -48 0 -6 -17 -29 -39 -52 -50 -55 -131
-162 -198 -262 -29 -44 -65 -98 -80 -119 -45 -63 -148 -257 -206 -386 -56
-126 -65 -147 -82 -195 -10 -27 -22 -55 -27 -61 -4 -6 -6 -13 -3 -15 2 -3 -9
-45 -26 -94 -50 -148 -97 -349 -119 -518 -10 -70 -15 -120 -29 -262 -9 -82 -6
-490 3 -535 3 -14 7 -52 11 -85 3 -33 8 -69 10 -80 2 -11 7 -40 10 -65 13
-107 78 -395 104 -461 5 -13 22 -64 37 -114 15 -49 40 -117 54 -150 15 -33 38
-85 51 -115 30 -69 180 -363 188 -370 4 -3 35 -49 69 -103 70 -110 181 -258
224 -300 16 -15 44 -51 63 -80 34 -53 67 -87 85 -87 6 0 10 -4 10 -10 0 -17
246 -250 263 -250 2 0 28 -23 58 -51 30 -28 70 -59 89 -69 19 -10 46 -29 60
-42 14 -13 66 -48 115 -78 50 -30 97 -59 105 -66 23 -19 89 -54 101 -54 6 0
29 -13 52 -28 43 -29 208 -112 223 -112 10 0 110 -38 136 -51 10 -5 26 -9 36
-9 10 0 22 -4 28 -9 25 -23 361 -100 559 -128 139 -19 591 -27 695 -12 36 6
97 14 135 19 190 25 367 67 565 135 172 59 349 137 358 158 2 4 9 7 15 7 38 0
451 260 465 293 2 4 8 7 14 7 6 0 26 15 44 32 19 18 54 49 80 68 84 64 298
284 400 410 20 25 40 47 45 48 5 2 9 10 9 18 0 8 5 14 10 14 6 0 10 4 10 9 0
4 16 25 35 45 19 21 35 42 35 48 0 8 46 73 90 125 5 7 10 15 10 18 0 3 15 29
33 58 77 120 187 329 187 354 0 3 6 14 13 22 24 28 105 236 157 399 48 155 91
353 110 516 6 49 13 93 15 97 22 35 23 710 1 747 -2 4 -7 36 -10 72 -4 35 -16
112 -28 170 -12 58 -22 116 -23 130 -5 47 -55 231 -86 313 -17 45 -32 91 -34
102 -5 21 -36 96 -66 158 -11 22 -19 45 -19 53 0 8 -3 14 -8 14 -4 0 -18 25
-31 55 -13 30 -28 55 -32 55 -5 0 -9 9 -9 20 0 11 -10 36 -21 57 -12 21 -33
58 -47 83 -14 25 -34 59 -44 75 -10 17 -21 37 -25 45 -3 8 -9 17 -13 20 -4 3
-35 48 -70 100 -35 52 -69 100 -74 106 -6 6 -22 26 -36 44 -64 86 -122 158
-155 191 -19 20 -35 39 -35 41 0 8 -169 175 -230 228 -29 25 -58 50 -64 55
-36 33 -118 96 -161 125 -27 19 -56 40 -64 48 -24 23 -210 141 -249 157 -20 9
-50 27 -68 40 -18 14 -37 25 -42 25 -5 0 -41 16 -81 35 -39 19 -74 35 -76 35
-2 0 -28 11 -57 24 -77 35 -138 57 -138 50 0 -4 -6 -2 -12 3 -7 5 -33 15 -58
22 -25 8 -52 16 -60 19 -8 3 -19 6 -25 8 -5 1 -44 11 -85 23 -41 11 -88 23
-105 26 -58 11 -140 24 -185 29 -25 3 -63 8 -85 12 -64 10 -85 12 -185 20 -88
6 -439 12 -444 7z m439 -363 c77 -6 181 -17 230 -25 50 -8 107 -17 128 -19 20
-3 45 -9 55 -14 9 -5 34 -12 55 -16 70 -13 247 -76 353 -126 34 -16 80 -34
103 -41 23 -7 41 -16 41 -21 0 -4 3 -7 8 -6 4 2 48 -21 98 -50 50 -28 95 -52
99 -52 4 0 35 -21 69 -48 33 -26 74 -54 89 -62 16 -8 41 -26 56 -41 16 -14 35
-31 45 -36 31 -17 120 -99 245 -224 147 -146 210 -217 251 -279 16 -25 47 -64
69 -88 21 -24 45 -58 52 -75 7 -18 18 -37 24 -43 5 -7 18 -21 27 -33 21 -25
222 -416 233 -451 4 -14 13 -38 21 -55 59 -133 88 -229 128 -427 46 -230 52
-275 63 -468 11 -199 4 -534 -12 -560 -2 -4 -5 -24 -6 -46 -6 -151 -129 -637
-176 -696 -6 -7 -18 -36 -27 -65 -18 -55 -170 -358 -192 -384 -8 -8 -14 -18
-14 -22 0 -3 -18 -32 -40 -63 -22 -32 -40 -62 -40 -69 0 -6 -16 -28 -35 -49
-19 -21 -48 -59 -65 -84 -52 -80 -80 -111 -248 -279 -202 -200 -216 -213 -231
-213 -6 0 -14 -7 -17 -15 -3 -8 -29 -29 -57 -47 -29 -18 -61 -41 -71 -50 -11
-10 -23 -18 -27 -18 -4 0 -14 -6 -21 -13 -29 -27 -243 -157 -260 -157 -4 0
-29 -13 -56 -29 -26 -15 -66 -34 -88 -41 -21 -7 -43 -16 -49 -20 -21 -14 -176
-70 -300 -108 -127 -39 -213 -59 -285 -68 -19 -2 -44 -6 -56 -9 -89 -20 -543
-28 -694 -12 -94 10 -278 42 -350 61 -158 42 -407 132 -481 175 -19 10 -45 22
-58 26 -13 4 -47 21 -75 38 -28 17 -69 39 -91 50 -45 22 -146 89 -215 142 -25
19 -49 35 -53 35 -4 0 -19 11 -32 24 -14 14 -42 37 -62 53 -21 15 -52 41 -69
58 -17 16 -79 77 -139 135 -96 94 -176 187 -300 352 -48 63 -125 178 -125 185
0 2 -19 37 -42 76 -106 181 -223 451 -273 632 -100 358 -119 498 -120 870 0
175 11 431 20 475 3 14 7 34 9 45 2 11 9 38 15 60 6 22 13 56 16 75 2 19 16
73 30 120 15 47 31 103 36 124 16 65 76 231 100 278 12 24 22 45 21 48 0 3 17
39 38 80 21 41 46 91 55 110 27 60 46 90 55 90 5 0 11 13 15 30 4 16 11 32 16
35 4 3 16 22 26 42 9 20 41 66 70 102 29 36 58 77 65 91 7 14 22 34 33 45 11
11 42 47 69 80 83 104 277 296 366 365 25 19 51 42 58 52 7 9 27 24 45 33 18
8 64 41 104 73 40 32 89 67 110 78 46 25 120 66 189 105 28 16 56 29 62 29 5
0 36 12 68 27 33 15 61 28 64 28 3 1 27 11 54 23 27 12 52 22 56 22 4 0 20 6
36 14 36 18 222 69 329 89 220 43 510 56 780 37z"/>
<path d="M4775 9138 c-77 -3 -174 -11 -215 -17 -41 -7 -88 -14 -105 -16 -177
-23 -492 -127 -650 -215 -33 -19 -86 -46 -117 -62 -32 -16 -58 -33 -58 -38 0
-6 -3 -9 -7 -8 -15 3 -62 -25 -57 -33 3 -5 -1 -9 -9 -9 -8 0 -20 -7 -27 -15
-7 -8 -21 -15 -31 -15 -11 0 -19 -4 -19 -9 0 -5 -8 -12 -17 -15 -10 -3 -36
-23 -58 -44 -22 -20 -65 -56 -95 -79 -94 -72 -390 -385 -390 -413 0 -5 -4 -10
-9 -10 -4 0 -35 -42 -67 -92 -32 -51 -64 -97 -71 -101 -7 -4 -13 -12 -13 -17
0 -4 -25 -51 -54 -103 -52 -89 -106 -198 -106 -212 0 -4 -6 -21 -14 -38 -8
-18 -22 -54 -32 -82 -9 -27 -21 -55 -26 -61 -8 -11 -45 -124 -51 -159 -6 -31
-18 -79 -24 -95 -4 -8 -8 -26 -10 -40 -2 -14 -8 -45 -13 -70 -10 -46 -19 -96
-25 -140 -2 -14 -6 -43 -9 -65 -14 -103 -17 -150 -17 -280 0 -126 3 -188 15
-295 2 -19 7 -60 10 -90 3 -30 11 -78 17 -107 5 -28 11 -61 12 -72 1 -12 4
-21 8 -21 4 0 9 -15 13 -32 3 -18 8 -44 10 -58 8 -40 60 -197 97 -291 10 -25
26 -68 35 -95 9 -27 21 -52 26 -55 5 -3 8 -8 6 -11 -5 -7 45 -108 54 -108 4 0
8 -4 8 -8 0 -14 96 -182 119 -208 12 -13 18 -24 14 -24 -3 0 3 -10 14 -22 12
-13 29 -39 40 -58 10 -20 29 -47 42 -60 13 -14 40 -47 61 -75 44 -60 311 -331
359 -366 18 -13 46 -38 62 -55 16 -16 45 -36 64 -44 19 -8 35 -17 35 -20 0
-15 127 -98 245 -160 33 -18 67 -38 75 -45 8 -7 31 -19 50 -28 19 -8 82 -35
140 -61 117 -51 218 -85 360 -121 85 -21 135 -30 300 -51 144 -18 493 -6 640
22 14 3 39 7 55 8 48 6 168 34 216 50 24 9 49 16 56 16 6 0 24 5 40 12 32 13
39 15 71 22 13 3 88 37 167 76 80 38 147 70 150 70 4 0 37 20 75 45 38 25 73
45 78 45 5 0 22 11 38 25 16 14 32 25 36 25 4 0 20 11 35 25 32 29 30 26 108
84 33 25 64 51 68 58 4 7 13 13 19 13 12 0 245 232 308 309 25 29 52 61 60 71
8 10 22 28 30 40 8 12 22 30 30 40 8 10 22 28 30 41 8 12 23 31 33 41 9 10 14
18 10 18 -5 0 -3 4 3 8 6 4 21 30 34 57 13 28 27 52 31 55 14 10 72 120 142
270 11 25 25 48 31 52 6 4 8 8 3 8 -4 0 -1 13 7 29 9 16 12 31 9 35 -4 3 -2 6
4 6 5 0 16 26 23 58 7 31 17 68 23 82 5 14 11 30 12 35 2 6 10 35 19 66 9 31
19 65 21 75 2 11 9 37 15 59 23 88 38 165 54 285 14 105 18 438 6 516 -4 27
-10 72 -13 99 -3 28 -10 70 -16 95 -5 25 -12 56 -15 70 -6 30 -9 44 -29 130
-9 36 -23 85 -31 109 -9 24 -13 47 -10 52 3 5 1 9 -3 9 -5 0 -14 21 -21 48
-22 82 -85 236 -143 345 -48 91 -76 138 -100 174 -16 23 -29 46 -29 51 0 6
-18 33 -40 61 -22 28 -40 55 -40 61 0 5 -4 10 -8 10 -4 0 -15 12 -24 28 -47
79 -301 343 -433 450 -38 31 -81 67 -95 80 -14 13 -38 30 -55 39 -16 9 -63 38
-103 65 -39 28 -78 51 -86 52 -7 1 -24 9 -37 17 -110 70 -481 220 -584 235
-16 3 -37 7 -45 11 -8 3 -31 7 -50 10 -19 2 -75 11 -125 19 -49 9 -155 17
-235 20 -80 3 -152 6 -160 7 -8 1 -78 -1 -155 -5z m729 -283 c-1 -30 -6 -60
-9 -66 -4 -5 -8 -20 -10 -32 -16 -115 -55 -320 -66 -346 -9 -22 -13 -44 -23
-121 -2 -14 -6 -32 -9 -40 -7 -18 -55 -249 -63 -305 -3 -22 -14 -82 -24 -133
-11 -51 -19 -96 -19 -100 1 -4 0 -9 -1 -12 -2 -7 -9 -42 -14 -70 -2 -14 -6
-32 -9 -40 -3 -8 -9 -33 -12 -55 -3 -22 -17 -96 -31 -165 -14 -69 -34 -172
-44 -230 -59 -339 -71 -406 -75 -418 -3 -8 -8 -37 -11 -65 -3 -29 -7 -58 -10
-66 -3 -8 -7 -38 -10 -67 l-6 -53 33 -5 c19 -3 51 -8 73 -11 21 -3 42 -8 47
-11 5 -3 9 0 9 6 0 6 3 9 8 6 4 -2 55 -7 112 -11 58 -3 139 -8 180 -11 41 -3
128 -7 193 -9 65 -2 121 -6 124 -9 3 -3 -11 -30 -31 -60 -20 -31 -43 -71 -51
-90 -8 -19 -18 -36 -23 -38 -4 -1 -25 -37 -46 -78 -21 -41 -45 -82 -52 -91 -8
-8 -14 -20 -14 -26 0 -6 -11 -27 -25 -47 -13 -20 -21 -36 -17 -36 4 0 2 -4 -5
-8 -6 -4 -13 -16 -15 -27 -1 -11 -5 -22 -8 -25 -8 -8 -26 -39 -71 -127 -24
-46 -46 -83 -50 -83 -4 0 -10 -12 -13 -26 -4 -15 -18 -43 -32 -63 -13 -19 -24
-41 -24 -48 0 -7 -4 -13 -8 -13 -8 0 -34 -64 -32 -76 1 -4 -3 -10 -8 -13 -9
-6 -96 -165 -139 -256 -13 -27 -33 -66 -44 -85 -11 -19 -28 -51 -37 -70 -9
-19 -19 -37 -22 -40 -3 -3 -24 -41 -46 -85 -62 -121 -106 -208 -113 -225 -20
-42 -57 -107 -69 -118 -7 -8 -10 -17 -7 -22 3 -5 1 -10 -3 -12 -14 -5 -92
-159 -92 -180 0 -10 -4 -18 -8 -18 -4 0 -15 -15 -24 -32 -8 -18 -29 -60 -47
-92 -17 -33 -31 -65 -31 -70 0 -6 -9 -17 -20 -24 -22 -13 -21 -36 -6 238 2 41
7 91 10 110 3 19 8 76 11 125 10 137 13 168 19 211 18 131 37 299 41 352 2 34
6 65 8 70 3 4 8 43 11 87 4 44 11 97 15 118 5 22 5 39 0 43 -5 3 -7 10 -3 15
3 6 8 22 9 37 2 15 6 45 9 67 3 22 9 74 12 116 l7 76 -34 6 c-42 8 -916 0
-929 -8 -6 -4 -10 -2 -10 4 0 6 -7 8 -15 5 -8 -4 -15 -3 -15 2 0 12 74 159 83
162 4 2 7 9 7 17 0 7 7 18 15 25 8 7 13 16 10 20 -3 5 -1 10 3 12 10 4 82 115
82 126 0 5 25 50 55 101 30 51 55 97 55 101 0 4 6 13 14 19 8 7 24 33 36 59
12 26 38 70 56 98 19 28 34 56 34 63 0 6 4 11 9 11 5 0 19 25 31 55 12 30 25
55 29 55 3 0 14 17 24 38 10 20 32 60 49 87 17 28 58 100 91 160 34 61 67 116
74 123 7 7 13 18 13 23 0 5 5 15 11 22 10 12 24 38 81 147 19 36 55 99 80 140
25 41 60 103 77 137 18 33 41 70 52 82 10 11 19 27 19 36 0 8 4 15 8 15 4 0
19 25 32 55 13 30 27 55 30 55 3 0 11 15 19 33 8 17 29 54 48 82 18 27 33 55
33 62 0 7 4 13 9 13 5 0 13 10 17 23 4 12 11 25 16 28 5 3 10 12 11 20 2 8 5
19 9 24 3 6 27 50 52 98 25 48 54 101 66 117 11 15 20 31 20 35 0 3 13 25 28
48 16 23 57 98 91 165 72 144 84 165 93 172 4 3 23 40 43 83 20 42 38 77 39
77 2 0 2 -25 0 -55z"/>
<path d="M3318 2574 c-3 -3 -106 -7 -229 -10 -273 -5 -389 -11 -396 -18 -4 -3
-12 -1 -20 5 -7 6 -13 8 -13 3 0 -5 -39 -10 -88 -11 -178 -5 -259 -10 -270
-17 -7 -4 -12 -3 -12 3 0 21 -56 -10 -76 -42 -20 -34 -64 -144 -64 -163 0 -6
-8 -29 -17 -50 -9 -22 -16 -45 -14 -51 1 -7 -3 -13 -9 -13 -6 0 -9 -4 -6 -8 3
-5 -1 -20 -9 -35 -8 -15 -12 -27 -10 -27 3 0 0 -11 -5 -25 -5 -14 -12 -36 -14
-50 -2 -13 -12 -39 -20 -57 -24 -51 -36 -97 -26 -103 22 -14 119 -5 169 14 29
12 56 19 60 16 3 -4 5 -28 3 -53 -2 -26 -4 -59 -5 -74 -1 -16 -4 -28 -7 -28
-3 0 -5 -12 -6 -27 -1 -44 -13 -156 -19 -183 -3 -14 -7 -41 -9 -60 -7 -57 -16
-121 -26 -185 -10 -61 -19 -132 -25 -195 -2 -19 -6 -44 -8 -55 -3 -11 -8 -47
-11 -80 -21 -180 -39 -227 -86 -233 -40 -5 -68 -23 -83 -53 -14 -31 -18 -102
-20 -426 -2 -214 -3 -209 43 -219 8 -2 62 -6 120 -9 58 -2 105 -5 105 -5 0
-12 821 -17 965 -6 52 3 118 8 145 10 28 2 73 7 100 10 28 3 75 8 105 11 107
9 155 15 205 25 28 6 66 12 85 15 19 3 44 7 55 9 11 2 36 7 55 10 19 4 53 11
74 16 22 5 44 7 48 4 4 -3 8 -1 8 4 0 6 17 13 37 17 53 10 190 53 243 77 25
12 63 29 85 39 44 20 113 59 132 74 7 6 24 19 39 30 14 11 34 28 43 39 9 10
25 28 36 40 12 11 24 28 28 36 4 8 17 31 28 50 53 87 47 256 -14 380 -12 25
-21 49 -19 53 1 4 -5 10 -13 13 -8 4 -15 11 -15 18 0 20 -103 122 -187 185
-46 34 -83 58 -83 54 0 -12 -20 21 -20 34 0 6 17 22 37 34 37 23 140 126 157
157 5 10 13 19 17 22 8 6 59 78 59 84 0 2 10 25 22 52 11 27 20 49 19 49 -1 0
6 18 15 40 34 81 38 205 9 290 -12 36 -50 110 -58 113 -4 2 -5 7 -2 11 2 4
-11 24 -29 44 -19 21 -32 37 -30 37 6 0 -64 60 -111 95 -22 17 -65 43 -95 59
-30 16 -58 34 -62 40 -4 6 -8 7 -8 3 0 -5 -15 0 -32 10 -29 17 -111 47 -158
59 -61 15 -107 27 -120 31 -8 3 -28 7 -45 8 -16 2 -50 6 -75 9 -119 14 -179
18 -357 21 -106 2 -196 6 -201 9 -5 3 -12 3 -14 0z m342 -756 c8 -2 20 -7 25
-10 6 -4 17 -3 24 1 18 12 132 -19 138 -37 4 -9 -5 -23 -23 -36 -16 -12 -30
-20 -31 -18 -2 1 -18 -5 -36 -15 -17 -9 -40 -16 -49 -14 -10 1 -18 -3 -18 -9
0 -7 -7 -10 -15 -6 -8 3 -15 1 -15 -5 0 -6 -4 -7 -10 -4 -5 3 -18 1 -28 -4
-20 -10 -64 -20 -117 -26 -16 -2 -30 -4 -30 -5 0 -8 -252 -42 -322 -43 -59 -2
-77 1 -87 15 -10 13 -13 91 -7 170 2 16 109 38 220 44 41 3 76 6 78 7 4 4 286
0 303 -5z m90 -911 c0 -13 -28 -44 -36 -40 -9 4 -44 -11 -44 -19 0 -5 -4 -7
-9 -4 -8 5 -43 -3 -91 -21 -20 -8 -39 -12 -70 -17 -14 -2 -25 -5 -25 -6 0 -2
-14 -4 -105 -15 -36 -4 -76 -10 -90 -12 -67 -11 -259 -14 -278 -4 -37 20 -38
96 0 120 15 9 18 10 13 0 -6 -8 -4 -10 6 -3 19 11 38 12 297 18 123 2 225 6
227 8 2 2 49 4 104 6 83 3 101 1 101 -11z"/>
<path d="M6427 2564 c-3 -2 -132 -13 -242 -20 -49 -3 -93 -8 -96 -9 -3 -2 -30
-7 -59 -10 -30 -4 -57 -8 -61 -11 -4 -2 -24 -6 -45 -9 -22 -4 -68 -17 -104
-30 -36 -13 -82 -29 -102 -36 -21 -7 -38 -17 -38 -22 0 -4 -4 -6 -8 -3 -5 3
-20 -1 -35 -9 -15 -8 -27 -12 -27 -9 0 2 -17 -6 -37 -19 -21 -13 -69 -44 -108
-68 -38 -24 -72 -46 -75 -49 -3 -3 -21 -17 -40 -30 -19 -13 -40 -29 -46 -35
-7 -5 -36 -30 -65 -55 -29 -25 -62 -56 -73 -69 -12 -13 -32 -36 -47 -50 -14
-14 -47 -55 -75 -91 -27 -36 -52 -67 -55 -70 -3 -3 -8 -12 -12 -20 -3 -8 -20
-37 -36 -65 -29 -49 -75 -135 -77 -145 0 -3 -6 -17 -12 -32 -12 -28 -45 -135
-48 -153 -1 -5 -3 -12 -4 -15 -2 -5 -3 -13 -15 -65 -10 -49 -18 -312 -10 -332
4 -10 9 -37 11 -61 2 -24 9 -52 14 -63 6 -10 8 -19 6 -19 -9 0 54 -171 84
-230 44 -86 79 -133 162 -217 42 -43 83 -83 90 -88 7 -6 32 -25 54 -43 23 -17
47 -32 53 -32 6 0 11 -4 11 -8 0 -8 111 -66 175 -92 75 -31 243 -80 315 -93
14 -3 54 -10 90 -17 36 -7 81 -14 100 -16 19 -2 60 -6 90 -10 30 -3 84 -8 120
-9 36 -1 95 -4 131 -5 36 -2 71 0 77 4 6 3 13 2 17 -4 4 -6 10 -8 14 -6 4 3
59 8 121 11 63 4 129 8 145 10 102 12 145 16 185 20 25 2 59 6 75 9 17 3 50 8
75 10 25 3 56 8 70 11 14 2 50 9 80 15 87 16 92 17 151 34 31 9 67 19 80 21
13 3 25 9 27 15 2 6 8 8 12 5 15 -9 78 22 90 45 7 12 14 54 15 94 2 39 7 94
10 121 3 28 7 82 10 120 2 39 7 93 10 120 3 28 7 76 8 107 1 32 6 58 11 58 5
0 3 6 -3 13 -6 8 -9 16 -6 18 5 5 12 96 20 234 3 50 8 122 11 160 3 39 8 93
10 120 2 28 6 75 9 105 5 50 3 58 -23 88 -15 17 -33 32 -39 32 -6 0 -13 5 -15
10 -4 13 -29 15 -93 5 -27 -4 -61 -9 -75 -10 -14 -1 -38 -5 -55 -9 -16 -3 -50
-8 -75 -11 -25 -2 -61 -6 -80 -9 -97 -14 -136 -20 -150 -22 -8 -2 -38 -6 -66
-9 -41 -5 -53 -3 -57 9 -4 9 -2 16 4 16 6 0 7 5 4 10 -3 6 -1 10 4 10 6 0 11
6 11 14 0 8 3 16 8 18 4 2 35 37 70 78 35 41 77 89 93 106 16 17 29 36 29 43
0 6 4 11 8 11 14 0 47 64 48 94 1 16 -19 72 -44 125 -25 53 -45 102 -45 109 0
6 -4 12 -9 12 -4 0 -8 5 -8 10 0 6 -9 30 -21 54 -11 25 -22 51 -23 59 -1 8 -8
22 -15 31 -7 9 -10 16 -7 16 8 0 -21 56 -43 83 -8 9 -10 17 -5 17 9 0 -54 59
-65 61 -3 0 -17 3 -31 5 -22 4 -409 11 -413 8z m-255 -1008 c11 7 161 9 174 2
5 -2 44 -4 86 -3 114 0 115 -32 3 -49 -22 -3 -51 -8 -65 -11 -14 -4 -38 -8
-55 -10 -16 -2 -43 -6 -60 -10 -16 -3 -43 -8 -60 -10 -39 -7 -70 -13 -70 -15
0 -1 -10 -3 -23 -4 -37 -4 -53 -34 -46 -91 3 -27 7 -68 9 -90 2 -22 6 -67 10
-100 4 -33 8 -76 10 -95 1 -19 5 -42 8 -50 3 -8 6 -22 6 -30 1 -8 5 -51 9 -95
5 -44 7 -85 4 -92 -6 -18 -31 -24 -53 -13 -13 8 -19 7 -19 0 0 -6 -5 -8 -11
-4 -6 3 -25 8 -42 9 -77 7 -257 60 -257 76 0 5 -6 9 -13 9 -19 0 -73 52 -92
89 -24 47 -28 67 -28 151 1 65 3 88 17 135 11 36 38 85 48 85 6 0 9 3 6 6 -8
7 66 84 80 84 7 0 12 4 12 8 0 12 96 58 150 72 25 6 52 14 60 17 8 3 22 7 30
8 8 2 26 6 40 10 14 4 42 8 62 9 20 1 40 5 45 9 4 5 9 3 11 -2 2 -6 8 -8 14
-5z"/>
</g>
</svg>
